# xmcd CD database file
#
# Track frame offsets:
#	150
#	19629
#	43441
#	57415
#	69667
#	81054
#	100533
#	114230
#	124715
#	140625
#	158257
#	170065
#	182364
#	196042
#	212044
#	226744
#	237879
#	250490
#	261949
#	275346
#
# Disc length: 3839 seconds
#
# Revision: 1
# Processed by: cddbd v1.5.1PL0 Copyright (c) Steve Scherf et al.
# Submitted via: CDex 1.51
#
DISCID=0d0efd14
DTITLE=B.B. King - The very best of B.B. King [CD 2)
DYEAR=2004
DGENRE=Blues
TTITLE0=Sweet Sixteen
TTITLE1=Vou´ve Done Lost Your Good Thing Now
TTITLE2=Save A Seat For Me
TTITLE3=Miss Martha King
TTITLE4=Bye Bye Baby
TTITLE5=Please Hurry Home
TTITLE6=Three O´Clock Blues
TTITLE7=Fine Lookoing Woman
TTITLE8=The Letter
TTITLE9=That Evil Child
TTITLE10=Dark In The Night (Part I)
TTITLE11=Dark In The Night (Part II)
TTITLE12=Woke Up This Morning
TTITLE13=Long Nights
TTITLE14=Mr. Pawnbroker
TTITLE15=When Your Baby Packs Up And Goes
TTITLE16=Mistreated Woman
TTITLE17=She´s Dynamite
TTITLE18=Story from my Heart And Soul
TTITLE19=Get The Blues
EXTD=YEAR: 2004
EXTT0=
EXTT1=
EXTT2=
EXTT3=
EXTT4=
EXTT5=
EXTT6=
EXTT7=
EXTT8=
EXTT9=
EXTT10=
EXTT11=
EXTT12=
EXTT13=
EXTT14=
EXTT15=
EXTT16=
EXTT17=
EXTT18=
EXTT19=
PLAYORDER=
